<svg width="161" height="99" viewBox="0 0 161 99" fill="none" xmlns="http://www.w3.org/2000/svg">
<path d="M145.379 2.91467H104.142V14.6177H145.379V2.91467Z" fill="#FEFEFE"/>
<path d="M66.3293 43.8911C81.1829 41.1934 79.6509 23.9086 79.6509 23.9086C78.412 0.389312 55.7919 0.0562744 55.7919 0.0562744H0.427246V98.6362H54.2599C83.714 97.6904 83.4342 70.7275 83.4342 70.7275C84.5533 46.2357 66.3293 43.8911 66.3293 43.8911ZM23.6535 17.1945H48.0187C50.6198 17.1674 53.163 17.9623 55.2857 19.4659C59.7417 22.7363 59.2821 28.5179 59.2821 28.5179C59.2821 28.6178 59.2821 28.7177 59.2821 28.8243C59.2821 35.0055 53.8136 39.8413 47.2527 39.8413H23.6535V17.1945ZM62.153 68.0565C62.1479 69.7506 61.8063 71.4269 61.1479 72.9879C60.4896 74.5489 59.5276 75.9636 58.318 77.1497C57.1083 78.3359 55.675 79.2698 54.1013 79.8973C52.5277 80.5249 50.845 80.8335 49.1511 80.8053H23.6535V54.6016H49.9703C52.8012 54.6016 55.7053 55.3543 57.8168 57.2327C62.6125 61.4956 62.1396 67.7034 62.1396 67.7034C62.1463 67.8233 62.153 67.9366 62.153 68.0565Z" fill="#FEFEFE"/>
<path d="M141.682 72.1935C141.682 72.1935 140.783 83.4037 124.757 82.4579C124.757 82.4579 108.598 82.1848 108.325 65.0332H159.913C159.913 65.0332 161.911 47.482 155.723 38.1635C155.723 38.1635 149.242 22.1776 125.749 21.6847C125.749 21.6847 97.4807 19.7464 89.1547 48.8274C89.1547 48.8274 86.0508 63.5478 89.1547 74.6248C89.1547 74.6248 96.4816 98.7968 124.763 98.5237C124.763 98.5237 159.2 101.768 160.232 72.1935H141.682ZM123.997 36.3118C123.997 36.3118 139.157 34.4268 141.229 51.7982H108.817C108.817 51.7982 108.478 39.0161 123.997 36.3118Z" fill="#FEFEFE"/>
</svg>
