<svg width="185" height="184" viewBox="0 0 185 184" fill="none" xmlns="http://www.w3.org/2000/svg">
<path fill-rule="evenodd" clip-rule="evenodd" d="M136.171 156.794C135.374 152.081 131.209 129.136 120.952 100.973C146.191 96.9369 168.051 103.857 169.665 104.384C166.189 126.166 153.714 144.945 136.171 156.794ZM92.494 170.139C73.5725 170.139 56.2224 163.413 42.6932 152.22C43.7264 153.06 44.4475 153.587 44.4475 153.587C44.4475 153.587 59.4298 120.914 105.786 104.761C105.959 104.696 106.142 104.653 106.314 104.599C117.314 133.172 121.845 157.106 123.007 163.94C113.633 167.922 103.311 170.139 92.494 170.139ZM14.3217 91.965C14.3217 91.1363 14.3647 90.3184 14.3862 89.5005C15.7747 89.5328 54.3926 90.4045 94.6358 78.362C96.8745 82.7421 99.0164 87.2082 100.975 91.6529C99.942 91.9327 98.9195 92.2448 97.897 92.5891C55.7165 106.214 34.3195 144.16 34.3195 144.16C34.3195 144.16 34.3518 144.192 34.3518 144.203C21.8989 130.352 14.3217 112.047 14.3217 91.965ZM59.1392 21.2921C60.1832 22.6803 74.638 42.2776 88.1672 66.3195C50.6363 76.2957 18.0564 75.8976 16.0007 75.8653C21.0701 51.6512 37.3331 31.5804 59.1392 21.2921ZM73.7662 16.0833C73.7662 16.0941 73.7554 16.1049 73.7554 16.1049C73.7554 16.1049 73.6586 16.1264 73.5186 16.1479C73.6047 16.1264 73.6801 16.1156 73.7662 16.0833ZM144.114 33.3238C143.92 33.6144 132.791 50.5642 103.279 61.6166C89.9216 37.0689 75.2407 17.5685 74.0676 16.0188C79.9765 14.5874 86.1437 13.8126 92.494 13.8126C112.277 13.8126 130.348 21.1952 144.114 33.3238ZM170.634 91.1901C169.504 90.9426 143.048 85.2496 116.194 88.6288C115.635 87.2943 115.086 85.9491 114.504 84.6039C112.879 80.7727 111.125 76.9845 109.306 73.2609C140.174 60.6588 152.703 42.5467 152.853 42.3314C163.81 55.6438 170.451 72.6475 170.634 91.1901ZM182.161 73.5515C180.956 67.6755 179.148 61.8749 176.812 56.3433C174.53 50.9194 171.678 45.6891 168.374 40.8032C165.113 35.9604 161.345 31.3974 157.212 27.2649C153.069 23.1216 148.516 19.3657 143.662 16.0941C138.775 12.7795 133.544 9.9491 128.12 7.64607C122.588 5.32152 116.797 3.51353 110.92 2.31897C104.893 1.08136 98.6935 0.446411 92.494 0.446411C86.2837 0.446411 80.0841 1.08136 74.0568 2.31897C68.1802 3.51353 62.3896 5.32152 56.8574 7.64607C51.4328 9.9491 46.2019 12.7795 41.3047 16.0941C36.4613 19.3657 31.9085 23.1216 27.7648 27.2649C23.6317 31.3974 19.8754 35.9604 16.6034 40.8032C13.2992 45.6891 10.4469 50.9194 8.16517 56.3433C5.81881 61.8749 4.02138 67.6755 2.81591 73.5515C1.58892 79.5673 0.964661 85.7661 0.964661 91.965C0.964661 98.1853 1.58892 104.384 2.81591 110.411C4.02138 116.287 5.81881 122.077 8.16517 127.597C10.4469 133.021 13.2992 138.273 16.6034 143.159C19.8754 148.002 23.6317 152.543 27.7648 156.697C31.9085 160.83 36.4613 164.575 41.3047 167.857C46.2019 171.161 51.4328 174.002 56.8574 176.295C62.3896 178.641 68.1802 180.427 74.0568 181.622C80.0841 182.87 86.2837 183.494 92.494 183.494C98.6935 183.494 104.893 182.87 110.92 181.622C116.797 180.427 122.588 178.641 128.12 176.295C133.544 174.002 138.775 171.161 143.662 167.857C148.516 164.575 153.069 160.83 157.212 156.697C161.345 152.543 165.113 148.002 168.374 143.159C171.678 138.273 174.53 133.021 176.812 127.597C179.148 122.077 180.956 116.287 182.161 110.411C183.388 104.384 184.013 98.1853 184.013 91.965C184.013 85.7661 183.388 79.5673 182.161 73.5515Z" fill="white"/>
</svg>
