<svg width="65" height="127" viewBox="0 0 65 127" fill="none" xmlns="http://www.w3.org/2000/svg">
<path d="M42.4087 126.712C41.7842 126.737 41.3845 126.787 40.9848 126.787C32.4413 126.787 23.9228 126.762 15.3793 126.812C14.1803 126.812 13.8555 126.487 13.8555 125.288C13.8805 105.403 13.8805 85.4934 13.8805 65.6085C13.8805 65.0839 13.8805 64.5593 13.8805 63.8848C9.23402 63.8848 4.71246 63.8848 0.115967 63.8848C0.115967 56.7902 0.115967 49.8205 0.115967 42.651C0.590605 42.651 1.04026 42.651 1.46494 42.651C5.21208 42.651 8.95923 42.626 12.7064 42.676C13.6556 42.676 13.9055 42.4012 13.9055 41.4769C13.8555 35.9061 13.8555 30.3104 13.9055 24.7397C13.9304 20.8426 14.555 17.0455 16.3536 13.5232C18.9266 8.552 22.9985 5.32945 28.1446 3.33097C32.3414 1.68223 36.763 1.08269 41.2096 1.00774C48.4541 0.907821 55.6986 0.957783 62.9431 0.932802C63.6176 0.932802 64.1672 0.907821 64.1672 1.8571C64.1422 8.72686 64.1422 15.5966 64.1422 22.4664C64.1422 22.5413 64.1172 22.6163 64.0173 22.941C63.5926 22.941 63.118 22.941 62.6433 22.941C58.1467 22.941 53.6502 22.916 49.1536 22.941C46.5556 22.941 44.4572 23.9902 43.1332 26.2635C42.7335 26.938 42.4837 27.8123 42.4837 28.6117C42.4087 32.8585 42.4837 37.1052 42.4337 41.352C42.4337 42.3512 42.7335 42.626 43.7077 42.626C49.953 42.5761 56.1982 42.601 62.4435 42.601C62.9431 42.601 63.4177 42.601 64.2671 42.601C63.3927 49.7456 62.5434 56.7403 61.6691 63.8099C55.174 63.8099 48.8538 63.8099 42.4087 63.8099C42.4087 84.8189 42.4087 105.703 42.4087 126.712Z" fill="white"/>
</svg>
