<svg width="135" height="134" viewBox="0 0 135 134" fill="none" xmlns="http://www.w3.org/2000/svg">
<path fill-rule="evenodd" clip-rule="evenodd" d="M111.077 31.2358C111.077 35.6723 107.48 39.268 103.044 39.268C98.6088 39.268 95.0121 35.6723 95.0121 31.2358C95.0121 26.7992 98.6088 23.2035 103.044 23.2035C107.481 23.2035 111.077 26.7992 111.077 31.2358ZM67.3144 89.2771C54.992 89.2771 45.003 79.2881 45.003 66.9657C45.003 54.6433 54.992 44.6542 67.3144 44.6542C79.6368 44.6542 89.6259 54.6433 89.6259 66.9657C89.6259 79.2881 79.6368 89.2771 67.3144 89.2771ZM67.3144 32.5933C48.3309 32.5933 32.942 47.9822 32.942 66.9657C32.942 85.9492 48.3309 101.338 67.3144 101.338C86.2979 101.338 101.687 85.9492 101.687 66.9657C101.687 47.9822 86.2979 32.5933 67.3144 32.5933ZM67.3144 12.0912C85.1872 12.0912 87.304 12.1592 94.3615 12.4813C100.888 12.7794 104.432 13.8692 106.791 14.7864C109.915 16.0006 112.144 17.4513 114.487 19.794C116.83 22.1357 118.28 24.3655 119.495 27.4905C120.411 29.849 121.502 33.3934 121.8 39.9196C122.122 46.9781 122.19 49.095 122.19 66.9678C122.19 84.8406 122.122 86.9574 121.8 94.0149C121.502 100.541 120.412 104.086 119.495 106.444C118.28 109.568 116.83 111.798 114.487 114.141C112.145 116.483 109.916 117.934 106.791 119.148C104.432 120.064 100.888 121.155 94.3615 121.453C87.304 121.775 85.1872 121.843 67.3144 121.843C49.4406 121.843 47.3237 121.775 40.2662 121.453C33.74 121.155 30.1956 120.065 27.8372 119.148C24.7132 117.934 22.4834 116.483 20.1406 114.141C17.7989 111.799 16.3473 109.569 15.133 106.444C14.2168 104.086 13.126 100.541 12.8279 94.0149C12.5058 86.9564 12.4378 84.8395 12.4378 66.9678C12.4378 49.095 12.5058 46.9781 12.8279 39.9196C13.126 33.3934 14.2158 29.849 15.133 27.4905C16.3473 24.3665 17.7979 22.1367 20.1406 19.794C22.4823 17.4513 24.7121 16.0006 27.8372 14.7864C30.1956 13.8702 33.74 12.7794 40.2662 12.4813C47.3248 12.1592 49.4416 12.0912 67.3144 12.0912ZM67.3144 0.0302734C49.1362 0.0302734 46.8562 0.107668 39.7171 0.432932C32.5927 0.758196 27.7263 1.88982 23.4696 3.54438C19.0676 5.25437 15.3349 7.54377 11.6137 11.265C7.8925 14.9862 5.6031 18.7188 3.89311 23.1209C2.23855 27.3786 1.10692 32.244 0.781656 39.3684C0.456392 46.5075 0.378998 48.7875 0.378998 66.9657C0.378998 85.1439 0.456392 87.4239 0.781656 94.5629C1.10692 101.687 2.23855 106.553 3.89311 110.81C5.6031 115.213 7.8925 118.945 11.6137 122.666C15.3349 126.388 19.0676 128.676 23.4696 130.387C27.7273 132.042 32.5927 133.173 39.7171 133.498C46.8562 133.824 49.1362 133.901 67.3144 133.901C85.4926 133.901 87.7726 133.824 94.9117 133.498C102.036 133.173 106.901 132.042 111.159 130.387C115.561 128.676 119.294 126.388 123.015 122.666C126.736 118.945 129.025 115.213 130.736 110.81C132.39 106.553 133.522 101.687 133.847 94.5629C134.172 87.4239 134.25 85.1439 134.25 66.9657C134.25 48.7875 134.172 46.5075 133.847 39.3684C133.522 32.244 132.39 27.3786 130.736 23.1209C129.025 18.7188 126.736 14.9862 123.015 11.265C119.294 7.54377 115.561 5.25542 111.159 3.54438C106.901 1.88982 102.036 0.758196 94.9117 0.432932C87.7726 0.107668 85.4926 0.0302734 67.3144 0.0302734Z" fill="white"/>
</svg>
