<svg width="153" height="127" viewBox="0 0 153 127" fill="none" xmlns="http://www.w3.org/2000/svg">
<path fill-rule="evenodd" clip-rule="evenodd" d="M152.059 15.0659C146.488 17.6033 140.489 19.3186 134.196 20.0851C140.621 16.1427 145.553 9.89036 147.876 2.44395C141.859 6.09489 135.211 8.75077 128.109 10.1747C122.448 3.97801 114.358 0.10791 105.404 0.10791C88.236 0.10791 74.3074 14.3907 74.3074 32.0057C74.3074 34.5064 74.5739 36.9337 75.1082 39.2709C49.2554 37.937 26.3381 25.2511 10.9844 5.93023C8.30604 10.658 6.77435 16.1427 6.77435 21.984C6.77435 33.0458 12.2662 42.8105 20.6141 48.5333C15.5238 48.3781 10.7167 46.927 6.51611 44.5542V44.9463C6.51611 60.4066 17.2403 73.3022 31.4804 76.2234C28.8731 76.9721 26.1225 77.3464 23.283 77.3464C21.281 77.3464 19.3229 77.1545 17.4263 76.7802C21.3864 89.4483 32.8676 98.6752 46.4846 98.9216C35.8398 107.483 22.4194 112.584 7.84997 112.584C5.3398 112.584 2.85687 112.438 0.427246 112.145C14.1959 121.18 30.5541 126.465 48.1134 126.465C105.34 126.465 136.623 77.8652 136.623 35.71C136.623 34.3228 136.596 32.9356 136.543 31.5757C142.625 27.0766 147.902 21.4639 152.059 15.0659Z" fill="white"/>
</svg>
