<svg width="38" height="38" viewBox="0 0 38 38" fill="none" xmlns="http://www.w3.org/2000/svg">
<path fill-rule="evenodd" clip-rule="evenodd" d="M23.944 26.2605C18.1559 30.8963 9.68333 30.5314 4.31778 25.1659C-1.43926 19.4088 -1.43926 10.0748 4.31778 4.31778C10.0748 -1.43926 19.4088 -1.43926 25.1659 4.31778C30.5314 9.68333 30.8963 18.1559 26.2605 23.944L37.5202 35.2038C38.1599 35.8435 38.1599 36.8806 37.5202 37.5202C36.8806 38.1599 35.8435 38.1599 35.2038 37.5202L23.944 26.2605ZM6.63423 22.8494C2.15654 18.3717 2.15654 11.1119 6.63423 6.63424C11.1119 2.15654 18.3717 2.15654 22.8494 6.63424C27.3238 11.1087 27.3271 18.3611 22.8593 22.8396C22.856 22.8428 22.8527 22.8461 22.8494 22.8494C22.8461 22.8527 22.8428 22.856 22.8396 22.8593C18.3611 27.3271 11.1086 27.3238 6.63423 22.8494Z" fill="#C8C8C8"/>
</svg>
