<svg width="63" height="16" viewBox="0 0 63 16" fill="none" xmlns="http://www.w3.org/2000/svg">
<path d="M8.20186 10.9633L3.13947 11.0847C1.41276 11.1252 0 11.7927 0 13.4109C0 15.3123 1.27541 15.9798 2.41347 15.9798C4.02244 15.9798 5.47445 14.4829 6.37705 13.6941L8.29997 11.9949C8.98673 11.3881 9.55576 11.5297 9.55576 12.6422V13.6941C9.55576 14.9279 10.321 15.9798 11.93 15.9798C13.951 15.9798 14.6182 14.2402 14.2061 11.9747L12.4205 2.24526C12.1654 0.869785 11.361 0 10.1837 0C8.90824 0 8.20186 0.525917 6.49478 1.92162L2.55082 5.15803C1.64822 5.90645 1.05957 6.69532 1.05957 7.56511C1.05957 8.81922 2.00141 9.81037 3.15909 9.81037C3.88509 9.81037 4.98391 9.54741 5.6118 8.21239L7.98602 3.19595C8.28035 2.5689 8.98673 1.03161 9.81084 0.869785C10.635 0.707965 11.1647 1.41593 11.0274 2.52845L10.1837 9.689C10.0659 10.7206 9.3203 10.9431 8.20186 10.9633Z" fill="white"/>
<path d="M28.6831 11.7724L22.2864 9.76991C21.5408 9.54741 21.58 8.71808 22.2864 8.41466L26.976 6.37168C29.2521 5.38053 30.3705 4.00506 30.3705 2.77118C30.3705 1.41593 29.0559 0.303413 26.5835 0.303413H19.1665C17.381 0.303413 15.9682 0.991151 16.0859 2.77118C16.1841 4.42984 16.9885 5.17826 18.1266 5.17826C18.8526 5.17826 19.7356 4.87484 20.6774 4.28824L25.7398 1.1732C26.5051 0.687737 27.1722 1.63843 26.5835 2.24526L17.067 12.0152C16.4195 12.6827 16.1644 13.3502 16.1644 13.957C16.1644 15.0898 17.1455 15.9595 18.5583 15.9595C19.971 15.9595 20.6578 14.4223 20.6578 12.9052V11.5297C20.6578 10.579 20.8736 10.2958 21.2268 10.2958C21.4623 10.2958 21.7762 10.5386 21.9332 10.7004L25.7398 14.7863C26.5443 15.6561 27.5842 16 28.271 16C29.6053 16 30.2528 14.8066 30.2528 13.7547C30.2528 13.067 29.8604 12.1972 28.6831 11.7724Z" fill="white"/>
<path d="M40.1446 10.9633L35.0822 11.0847C33.3555 11.1252 31.9427 11.7927 31.9427 13.4109C31.9427 15.3123 33.2181 15.9798 34.3562 15.9798C35.9652 15.9798 37.4172 14.4829 38.3198 13.6941L40.2427 11.9949C40.9294 11.3881 41.4985 11.5297 41.4985 12.6422V13.6941C41.4985 14.9279 42.2637 15.9798 43.8727 15.9798C45.8937 15.9798 46.5609 14.2402 46.1488 11.9747L44.3632 2.24526C44.1082 0.869785 43.3037 0 42.1264 0C40.851 0 40.1446 0.525917 38.4375 1.92162L34.4935 5.15803C33.5909 5.90645 33.0023 6.69532 33.0023 7.56511C33.0023 8.81922 33.9441 9.81037 35.1018 9.81037C35.8278 9.81037 36.9266 9.54741 37.5545 8.21239L39.9287 3.19595C40.2231 2.5689 40.9294 1.03161 41.7536 0.869785C42.5777 0.707965 43.1074 1.41593 42.9701 2.52845L42.1264 9.689C42.0086 10.7206 41.263 10.9431 40.1446 10.9633Z" fill="white"/>
<path d="M62.8823 13.4311C62.8823 12.177 61.9012 11.3477 60.6062 11.3274L56.7407 11.287C55.9951 11.287 55.6811 11.1252 55.6811 10.6599C55.6811 10.1745 56.0539 9.93173 56.5248 9.76991L59.7428 8.59671C62.5095 7.58534 63 6.35145 63 4.97598C63 3.1555 61.8423 0 56.9958 0C51.0308 0 48.2249 5.23894 48.2249 12.1163C48.2249 15.0088 49.5788 15.9798 50.7953 15.9798C53.0322 15.9798 53.2677 14.1997 52.5024 12.3388L50.501 7.4842C50.344 7.09987 50.2459 6.69532 50.2459 6.311C50.2459 4.87484 51.3447 3.64096 53.3658 3.64096H59.5073C60.9397 3.64096 61.6853 4.40961 61.6853 5.40076C61.6853 6.45259 60.9986 7.42351 58.8991 7.14033L52.9341 6.35145C52.2081 6.25032 51.8156 6.39191 51.796 6.91783C51.796 7.20101 51.9922 7.62579 52.4239 8.19216L57.2705 14.2402C58.3497 15.5954 59.3896 15.9798 60.1745 15.9798C62.2151 15.9798 62.8823 14.7054 62.8823 13.4311Z" fill="white"/>
</svg>
