<svg width="51" height="13" viewBox="0 0 51 13" fill="none" xmlns="http://www.w3.org/2000/svg">
<path d="M7.00941 8.81511L2.99164 8.90992C1.62124 8.94153 0.5 9.46302 0.5 10.7272C0.5 12.2127 1.51223 12.7342 2.41545 12.7342C3.69242 12.7342 4.8448 11.5648 5.56115 10.9485L7.08728 9.62105C7.63233 9.14697 8.08393 9.25759 8.08393 10.1267V10.9485C8.08393 11.9125 8.69127 12.7342 9.96824 12.7342C11.5722 12.7342 12.1017 11.3752 11.7747 9.60525L10.3576 2.00411C10.1551 0.929519 9.51663 0.25 8.58226 0.25C7.57003 0.25 7.00941 0.660873 5.65458 1.75126L2.52446 4.27971C1.80811 4.86441 1.34093 5.48072 1.34093 6.16024C1.34093 7.14001 2.08842 7.91435 3.00721 7.91435C3.58341 7.91435 4.45548 7.70891 4.95381 6.66593L6.83811 2.74684C7.07171 2.25695 7.63233 1.05594 8.28638 0.929519C8.94044 0.803098 9.3609 1.35619 9.25189 2.22535L8.58226 7.81953C8.48883 8.62547 7.89706 8.7993 7.00941 8.81511Z" fill="#E3E3E3"/>
<path d="M23.2643 9.44722L18.1876 7.88274C17.5958 7.70891 17.627 7.061 18.1876 6.82396L21.9095 5.22788C23.7159 4.45354 24.6036 3.37895 24.6036 2.41498C24.6036 1.35619 23.5602 0.487041 21.598 0.487041H15.7115C14.2944 0.487041 13.1732 1.02434 13.2666 2.41498C13.3445 3.71081 13.983 4.29551 14.8862 4.29551C15.4624 4.29551 16.1632 4.05847 16.9106 3.60019L20.9284 1.16656C21.5358 0.787294 22.0652 1.53003 21.598 2.00411L14.0453 9.63685C13.5314 10.1583 13.3289 10.6798 13.3289 11.1539C13.3289 12.0389 14.1076 12.7184 15.2288 12.7184C16.35 12.7184 16.8951 11.5174 16.8951 10.3322V9.25759C16.8951 8.51485 17.0664 8.29362 17.3467 8.29362C17.5336 8.29362 17.7827 8.48325 17.9073 8.60967L20.9284 11.8018C21.5669 12.4814 22.3923 12.75 22.9373 12.75C23.9963 12.75 24.5102 11.8176 24.5102 10.9959C24.5102 10.4586 24.1987 9.77908 23.2643 9.44722Z" fill="#E3E3E3"/>
<path d="M32.3608 8.81511L28.343 8.90992C26.9726 8.94153 25.8514 9.46302 25.8514 10.7272C25.8514 12.2127 26.8636 12.7342 27.7668 12.7342C29.0438 12.7342 30.1962 11.5648 30.9125 10.9485L32.4386 9.62105C32.9837 9.14697 33.4353 9.25759 33.4353 10.1267V10.9485C33.4353 11.9125 34.0426 12.7342 35.3196 12.7342C36.9236 12.7342 37.4531 11.3752 37.126 9.60525L35.7089 2.00411C35.5065 0.929519 34.868 0.25 33.9336 0.25C32.9214 0.25 32.3608 0.660873 31.0059 1.75126L27.8758 4.27971C27.1595 4.86441 26.6923 5.48072 26.6923 6.16024C26.6923 7.14001 27.4398 7.91435 28.3586 7.91435C28.9348 7.91435 29.8068 7.70891 30.3052 6.66593L32.1895 2.74684C32.4231 2.25695 32.9837 1.05594 33.6377 0.929519C34.2918 0.803098 34.7123 1.35619 34.6033 2.22535L33.9336 7.81953C33.8402 8.62547 33.2484 8.7993 32.3608 8.81511Z" fill="#E3E3E3"/>
<path d="M50.4066 10.743C50.4066 9.76327 49.6279 9.11536 48.6001 9.09956L45.5323 9.06795C44.9405 9.06795 44.6914 8.94153 44.6914 8.57807C44.6914 8.1988 44.9872 8.00917 45.361 7.88274L47.9149 6.96618C50.1107 6.17604 50.5 5.21207 50.5 4.13748C50.5 2.71523 49.5812 0.25 45.7347 0.25C41.0006 0.25 38.7737 4.34292 38.7737 9.71587C38.7737 11.9757 39.8482 12.7342 40.8137 12.7342C42.589 12.7342 42.7759 11.3436 42.1686 9.8897L40.5802 6.09703C40.4556 5.79678 40.3777 5.48072 40.3777 5.18047C40.3777 4.05847 41.2498 3.0945 42.8538 3.0945H47.728C48.8649 3.0945 49.4566 3.69501 49.4566 4.46934C49.4566 5.29109 48.9116 6.04962 47.2453 5.82838L42.5112 5.21207C41.935 5.13306 41.6235 5.24368 41.608 5.65455C41.608 5.87579 41.7637 6.20765 42.1063 6.65013L45.9528 11.3752C46.8093 12.4339 47.6346 12.7342 48.2575 12.7342C49.8771 12.7342 50.4066 11.7386 50.4066 10.743Z" fill="#E3E3E3"/>
</svg>
