<svg width="80" height="20" viewBox="0 0 80 20" fill="none" xmlns="http://www.w3.org/2000/svg">
<path d="M10.4151 13.7042L3.98663 13.8559C1.79398 13.9064 0 14.7408 0 16.7636C0 19.1403 1.61957 19.9747 3.06472 19.9747C5.10787 19.9747 6.95168 18.1037 8.09784 17.1176L10.5396 14.9937C11.4117 14.2351 12.1343 14.4121 12.1343 15.8028V17.1176C12.1343 18.6599 13.106 19.9747 15.1492 19.9747C17.7156 19.9747 18.5627 17.8003 18.0395 14.9684L15.7721 2.80657C15.4482 1.08723 14.4266 0 12.9316 0C11.3121 0 10.4151 0.657396 8.24733 2.40202L3.23913 6.44753C2.09298 7.38306 1.34549 8.36915 1.34549 9.45638C1.34549 11.024 2.54147 12.263 4.01154 12.263C4.93345 12.263 6.32877 11.9343 7.1261 10.2655L10.141 3.99494C10.5147 3.21113 11.4117 1.28951 12.4582 1.08723C13.5047 0.884956 14.1774 1.76991 14.003 3.16056L12.9316 12.1113C12.7821 13.4008 11.8353 13.6789 10.4151 13.7042Z" fill="#E3E3E3"/>
<path d="M36.4229 14.7155L28.3002 12.2124C27.3534 11.9343 27.4032 10.8976 28.3002 10.5183L34.2552 7.9646C37.1455 6.72566 38.5658 5.00632 38.5658 3.46397C38.5658 1.76991 36.8963 0.379266 33.7569 0.379266H24.3385C22.0711 0.379266 20.2771 1.23894 20.4266 3.46397C20.5512 5.53729 21.5728 6.47282 23.0179 6.47282C23.9398 6.47282 25.0611 6.09355 26.257 5.3603L32.6855 1.4665C33.6572 0.859671 34.5044 2.04804 33.7569 2.80657L21.6724 15.019C20.8502 15.8533 20.5263 16.6877 20.5263 17.4463C20.5263 18.8622 21.7721 19.9494 23.5661 19.9494C25.36 19.9494 26.2321 18.0278 26.2321 16.1315V14.4121C26.2321 13.2238 26.5062 12.8698 26.9547 12.8698C27.2537 12.8698 27.6524 13.1732 27.8517 13.3755L32.6855 18.4829C33.707 19.5702 35.0276 20 35.8997 20C37.594 20 38.4163 18.5082 38.4163 17.1934C38.4163 16.3338 37.9179 15.2465 36.4229 14.7155Z" fill="#E3E3E3"/>
<path d="M50.9772 13.7042L44.5488 13.8559C42.3562 13.9064 40.5622 14.7408 40.5622 16.7636C40.5622 19.1403 42.1817 19.9747 43.6269 19.9747C45.67 19.9747 47.5139 18.1037 48.66 17.1176L51.1018 14.9937C51.9739 14.2351 52.6965 14.4121 52.6965 15.8028V17.1176C52.6965 18.6599 53.6682 19.9747 55.7114 19.9747C58.2777 19.9747 59.1249 17.8003 58.6017 14.9684L56.3343 2.80657C56.0104 1.08723 54.9888 0 53.4938 0C51.8742 0 50.9772 0.657396 48.8095 2.40202L43.8013 6.44753C42.6552 7.38306 41.9077 8.36915 41.9077 9.45638C41.9077 11.024 43.1036 12.263 44.5737 12.263C45.4956 12.263 46.8909 11.9343 47.6883 10.2655L50.7032 3.99494C51.0769 3.21113 51.9739 1.28951 53.0204 1.08723C54.0669 0.884956 54.7396 1.76991 54.5652 3.16056L53.4938 12.1113C53.3443 13.4008 52.3975 13.6789 50.9772 13.7042Z" fill="#E3E3E3"/>
<path d="M79.8505 16.7889C79.8505 15.2212 78.6047 14.1846 76.9602 14.1593L72.0517 14.1087C71.1048 14.1087 70.7062 13.9064 70.7062 13.3249C70.7062 12.7181 71.1796 12.4147 71.7776 12.2124L75.8639 10.7459C79.3771 9.48167 80 7.93932 80 6.21997C80 3.94437 78.5299 0 72.3756 0C64.801 0 61.2379 6.54867 61.2379 15.1454C61.2379 18.7611 62.9572 19.9747 64.502 19.9747C67.3425 19.9747 67.6415 17.7497 66.6697 15.4235L64.1282 9.35525C63.9289 8.87484 63.8043 8.36915 63.8043 7.88875C63.8043 6.09355 65.1996 4.5512 67.766 4.5512H75.5649C77.3838 4.5512 78.3306 5.51201 78.3306 6.75095C78.3306 8.06574 77.4585 9.27939 74.7925 8.92541L67.2179 7.93932C66.296 7.81289 65.7976 7.98989 65.7727 8.64728C65.7727 9.00126 66.0219 9.53224 66.5701 10.2402L72.7244 17.8003C74.0948 19.4943 75.4154 19.9747 76.412 19.9747C79.0033 19.9747 79.8505 18.3818 79.8505 16.7889Z" fill="#E3E3E3"/>
</svg>
