<svg width="25" height="25" viewBox="0 0 25 25" fill="none" xmlns="http://www.w3.org/2000/svg">
<path fill-rule="evenodd" clip-rule="evenodd" d="M15.4573 17.32C11.7455 20.2928 6.31223 20.0588 2.87143 16.618C-0.820424 12.9262 -0.820424 6.94048 2.87143 3.24863C6.56328 -0.443228 12.549 -0.443227 16.2408 3.24863C19.6816 6.68943 19.9156 12.1227 16.9428 15.8345L24.1634 23.0551C24.5736 23.4653 24.5736 24.1304 24.1634 24.5406C23.7532 24.9508 23.0881 24.9508 22.6779 24.5406L15.4573 17.32ZM4.35692 15.1325C1.48547 12.2611 1.48547 7.60556 4.35692 4.73412C7.22836 1.86267 11.8839 1.86267 14.7553 4.73412C17.6247 7.60345 17.6268 12.2543 14.7616 15.1262C14.7595 15.1283 14.7574 15.1304 14.7553 15.1325C14.7532 15.1346 14.7511 15.1367 14.749 15.1388C11.8771 18.004 7.22625 18.0019 4.35692 15.1325Z" fill="#C8C8C8"/>
</svg>
