<svg width="8" height="8" viewBox="0 0 8 8" fill="none" xmlns="http://www.w3.org/2000/svg">
<path d="M0.784591 1.05107C1.17365 0.662013 1.80443 0.662013 2.19349 1.05107L3.83721 2.69478L5.48092 1.05107C5.86998 0.662013 6.50076 0.662013 6.88982 1.05107C7.27888 1.44013 7.27888 2.07091 6.88982 2.45997L5.24611 4.10369L6.88982 5.7474C7.27888 6.13646 7.27888 6.76724 6.88982 7.1563C6.50076 7.54536 5.86998 7.54536 5.48092 7.1563L3.83721 5.51259L2.19349 7.1563C1.80443 7.54536 1.17365 7.54536 0.78459 7.1563C0.395534 6.76724 0.395534 6.13646 0.78459 5.7474L2.42831 4.10368L0.784591 2.45997C0.395534 2.07091 0.395534 1.44013 0.784591 1.05107Z" fill="white"/>
</svg>
