<svg width="20" height="24" viewBox="0 0 20 24" fill="none" xmlns="http://www.w3.org/2000/svg">
<path d="M15.3384 1.74476L14.7144 0.995948L14.7144 0.995948L15.3384 1.74476ZM17.5069 2.60045L16.5396 2.72135L16.5396 2.72136L17.5069 2.60045ZM8.67143 7.30059L8.04742 6.55177L8.04742 6.55177L8.67143 7.30059ZM8.67143 16.9067L8.04742 17.6555H8.04742L8.67143 16.9067ZM15.3384 22.4626L14.7144 23.2114L14.7144 23.2114L15.3384 22.4626ZM17.5069 21.6069L16.5396 21.486L17.5069 21.6069ZM17.6341 20.5887L18.6013 20.7096V20.7096L17.6341 20.5887ZM17.6341 3.61861L18.6013 3.49771V3.49771L17.6341 3.61861ZM15.9624 2.49358C16.1772 2.31459 16.505 2.44392 16.5396 2.72135L18.4741 2.47955C18.2482 0.672504 16.1134 -0.169904 14.7144 0.995948L15.9624 2.49358ZM9.29545 8.0494L15.9624 2.49358L14.7144 0.995948L8.04742 6.55177L9.29545 8.0494ZM8.24625 8.42927C8.62964 8.42927 9.00091 8.29485 9.29545 8.0494L8.04742 6.55177C8.10324 6.50526 8.17359 6.47979 8.24625 6.47979V8.42927ZM3.08179 8.42927H8.24625V6.47979H3.08179V8.42927ZM2.39613 9.11493C2.39613 8.73625 2.70311 8.42927 3.08179 8.42927V6.47979C1.62644 6.47979 0.446647 7.65958 0.446647 9.11493H2.39613ZM2.39613 15.0924L2.39613 9.11493H0.446647L0.446647 15.0924H2.39613ZM3.08179 15.778C2.70311 15.778 2.39613 15.4711 2.39613 15.0924H0.446647C0.446647 16.5477 1.62644 17.7275 3.08179 17.7275V15.778ZM8.24625 15.778H3.08179V17.7275H8.24625V15.778ZM9.29545 16.1579C9.00091 15.9125 8.62964 15.778 8.24625 15.778V17.7275C8.17359 17.7275 8.10324 17.7021 8.04742 17.6555L9.29545 16.1579ZM15.9624 21.7137L9.29545 16.1579L8.04742 17.6555L14.7144 23.2114L15.9624 21.7137ZM16.5396 21.486C16.505 21.7634 16.1772 21.8927 15.9624 21.7137L14.7144 23.2114C16.1134 24.3772 18.2482 23.5348 18.4741 21.7278L16.5396 21.486ZM16.6669 20.4678L16.5396 21.486L18.4741 21.7278L18.6013 20.7096L16.6669 20.4678ZM16.6669 3.73951C17.3612 9.294 17.3612 14.9133 16.6669 20.4678L18.6013 20.7096C19.3157 14.9945 19.3157 9.21277 18.6013 3.49771L16.6669 3.73951ZM16.5396 2.72136L16.6669 3.73951L18.6013 3.49771L18.4741 2.47955L16.5396 2.72136Z" fill="#C8C8C8"/>
</svg>
